<svg xmlns="http://www.w3.org/2000/svg" width="24" height="24"><path d="M8 5C6.3553 5 5 6.3553 5 8v9c0 1.6447 1.3553 3 3 3h9c1.6447 0 3-1.3553 3-3v-4.17187l-2 2V17c0 .5713-.4287 1-1 1H8c-.5713 0-1-.4287-1-1V8c0-.5713.4287-1 1-1h2.94531c.44818-.38868.9323-.72765 1.44336-1.00977.55979-.309 1.10069-.52775 1.61133-.68164V5z" style="fill:#000"/><path d="M16.6504 4.83203A.5857.5857 0 0 0 16 5.41406V7c-.599 0-1.59744.16222-2.64453.74023-.73787.40732-1.40688.97008-1.95117 1.66407-.54364.69315-.90638 1.44304-1.12305 2.17968C9.97427 12.62767 10 13.48932 10 14a1 1 0 0 0 2 0c0-.34751.13165-.91577.5039-1.47656.2627-.39574.61133-.73778 1.0215-.99805.40982-.26006.83133-.40819 1.22655-.48047C15.30538 10.94371 15.74477 11 16 11v1.58594A.5857.5857 0 0 0 17 13l3-3a1.414 1.414 0 0 0 0-2l-3-3a.5857.5857 0 0 0-.3496-.16797" style="fill:#000"/></svg>